<svg xmlns="http://www.w3.org/2000/svg" viewBox="0 0 1230.14 287.6"><defs><style>.cls-1{fill:#faf5ef;}.cls-1,.cls-3{stroke:#faf5ef;stroke-miterlimit:10;}.cls-2{fill:#0b315e;}.cls-3{fill:#ede8e4;}</style></defs><g id="レイヤー_2" data-name="レイヤー 2"><g id="TOP"><path class="cls-1" d="M253.05.48c32.62,9.35,65.72,18.68,97.1,29.45C522.5,96.17,657.73,193.68,794,226.42v-5.89h9.18v8c4.65,1,9.29,1.95,14,2.81v-3.15a14.22,14.22,0,0,1,1-5.63,10.75,10.75,0,0,1,2.7-3.82,9.17,9.17,0,0,1,3.73-2.16,15.24,15.24,0,0,1,4.37-.63h4.23v8.64H829q-2.7,0-2.7,3.15v5.19q8.79,1.41,17.62,2.41a14.35,14.35,0,0,1,6.68-1.48,14,14,0,0,1,7.33,1.8,13,13,0,0,1,1.57,1.11c3.66.26,7.32.45,11,.59V215.94h9.18v21.63q4.94.06,9.9,0v-3.15h9.18v2.86q5.93-.27,11.87-.77c.39-.29.79-.57,1.22-.83a14.09,14.09,0,0,1,7.34-1.8,15.06,15.06,0,0,1,5.94,1.11c54.72-7,111.43-28.38,172.36-69.81,57.61-47.23,103-103.1,132.21-164.73M898.75,225.12h-9.18v-9.18h9.18Z" transform="translate(0)"/><path class="cls-1" d="M803.17,228.52c-3.06-.67-6.12-1.36-9.18-2.1" transform="translate(0)"/><path class="cls-1" d="M794,220.53v5.89c3.06.74,6.12,1.43,9.18,2.1v-8Z" transform="translate(0)"/><path class="cls-1" d="M826.3,232.92c-3.06-.49-6.12-1-9.18-1.59" transform="translate(0)"/><path class="cls-1" d="M829,224.58h4.14v-8.64h-4.23a15.24,15.24,0,0,0-4.37.63,9.17,9.17,0,0,0-3.73,2.16,10.75,10.75,0,0,0-2.7,3.82,14.22,14.22,0,0,0-1,5.63v3.15c3.06.56,6.12,1.1,9.18,1.59v-5.19Q826.3,224.58,829,224.58Z" transform="translate(0)"/><path class="cls-1" d="M850.6,233.85a14.35,14.35,0,0,0-6.68,1.48c5.18.58,10.38,1.07,15.58,1.43a13,13,0,0,0-1.57-1.11A14,14,0,0,0,850.6,233.85Z" transform="translate(0)"/><path class="cls-1" d="M879.67,237.57q-4.6,0-9.18-.22" transform="translate(0)"/><path class="cls-1" d="M870.49,215.94v21.41q4.57.18,9.18.22V215.94Z" transform="translate(0)"/><path class="cls-1" d="M898.75,237.25c-3.07.14-6.13.23-9.18.29" transform="translate(0)"/><rect class="cls-1" x="889.57" y="215.94" width="9.18" height="9.18"/><path class="cls-1" d="M889.57,234.39v3.15c3-.06,6.11-.15,9.18-.29v-2.86Z" transform="translate(0)"/><path class="cls-1" d="M911.84,235.65c-.43.26-.83.54-1.22.83q7.23-.58,14.5-1.52a15.06,15.06,0,0,0-5.94-1.11A14.09,14.09,0,0,0,911.84,235.65Z" transform="translate(0)"/><path class="cls-2" d="M535.06,232.51a9.7,9.7,0,0,0-1.53-5.85q-1.53-2.07-5.58-2.07h-4.23V255c3.78-1.42,7.56-2.89,11.34-4.38Z" transform="translate(0)"/><path class="cls-2" d="M485.27,268.22c2.09-.64,4.19-1.3,6.29-2h-5.91Z" transform="translate(0)"/><path class="cls-2" d="M0,.86c26,81.34,79.13,154.7,151.83,214.3,105.93,72,199.08,83.48,291.25,64V216h9.18v61.19Q464,274.41,475.78,271L488.08,216h7.65l10.17,45.54q4.32-1.5,8.64-3.06V216h13.59q7.92,0,12,4.32t4.09,12.24V247q6.54-2.67,13.11-5.48l5.7-25.52h7.65l4,17.92q7.24-3.26,14.53-6.63a15,15,0,0,1,.82-2.92,13.77,13.77,0,0,1,3.06-4.68,14.26,14.26,0,0,1,4.73-3.11,15.85,15.85,0,0,1,6.07-1.12,15,15,0,0,1,7,1.58c87.82-42.33,180.82-95.77,288.24-137C980.05,52.17,1072.3,34,1138.49.48ZM359.2,280H350v-39h-.18l-9.09,27.54h-4.59l-9-27.54H327v39H317.8V216h8.82l11.79,33.93h.18L350.29,216h8.91Zm31.59,0-2.7-13.77H375.58L372.88,280H363.7L378,216h7.65L400,280ZM429,280,418.6,251.59l-5,9.27V280h-9.18V216h9.18V245.2h.18L427.24,216h9.18L423.91,241.6,438.76,280Z" transform="translate(0)"/><polygon class="cls-2" points="491.77 234.4 487.27 257.62 496.45 257.62 491.95 234.4 491.77 234.4"/><path class="cls-2" d="M566.92,234.4h-.18l-.63,3.28,1.33-.59Z" transform="translate(0)"/><polygon class="cls-2" points="381.7 234.4 377.2 257.62 386.38 257.62 381.88 234.4 381.7 234.4"/><path class="cls-2" d="M443.08,280h9.18v-2.89q-4.59,1.08-9.18,2Z" transform="translate(0)"/><path class="cls-2" d="M473.77,280H483l2.32-11.81q-4.75,1.45-9.49,2.81Z" transform="translate(0)"/><path class="cls-2" d="M498.16,266.26l2.7,13.77H510l-4.14-18.54q-7.17,2.47-14.34,4.77Z" transform="translate(0)"/><path class="cls-2" d="M535.06,263.38q0,4.14-1.62,6.07T528,271.39h-4.23V255q-4.59,1.74-9.18,3.4V280h12.78q8.19,0,12.56-4.28t4.36-13.27V247q-4.59,1.89-9.18,3.7Z" transform="translate(0)"/><path class="cls-2" d="M571.42,257.62h-9.18l3.87-19.94c-2.93,1.28-5.84,2.54-8.76,3.79L548.74,280h9.18l2.7-13.77h12.51l2.7,13.77H585L574.7,233.87c-2.42,1.08-4.84,2.16-7.26,3.22Z" transform="translate(0)"/><path class="cls-2" d="M589,230.17v35.28a16.38,16.38,0,0,0,1.4,7.24,13.94,13.94,0,0,0,3.55,4.64,12.56,12.56,0,0,0,4.86,2.52,20.55,20.55,0,0,0,5.31.72,13.6,13.6,0,0,0,5.72-1.22,14.93,14.93,0,0,0,4.63-3.28,15.6,15.6,0,0,0,3.11-4.73,14.24,14.24,0,0,0,1.12-5.62v-4h-9.18v3.15a8,8,0,0,1-.54,3.15,5.49,5.49,0,0,1-1.35,2,5.74,5.74,0,0,1-1.93,1,6.71,6.71,0,0,1-1.94.32q-3.15,0-4.36-1.89a8.49,8.49,0,0,1-1.22-4.68V232.06a11.35,11.35,0,0,1,1.13-5.36q1.13-2.12,4.54-2.11a5,5,0,0,1,4.14,2,7.43,7.43,0,0,1,1.53,4.68v3.06h9.18v-3.6a16.59,16.59,0,0,0-1.12-6.17,15,15,0,0,0-3.11-4.9,13.24,13.24,0,0,0-3.53-2.65q-10.89,5.25-21.68,10.25A16.46,16.46,0,0,0,589,230.17Z" transform="translate(0)"/><polygon class="cls-2" points="646.66 243.4 635.32 243.4 635.32 215.95 626.14 215.95 626.14 280.03 635.32 280.03 635.32 251.5 646.66 251.5 646.66 280.03 655.84 280.03 655.84 215.95 646.66 215.95 646.66 243.4"/><rect class="cls-2" x="664.75" y="215.95" width="9.18" height="64.08"/><path class="cls-2" d="M725.23,220.45a12.78,12.78,0,0,0-5.22-3.51,20.47,20.47,0,0,0-6.66-1H699.58V280h9.18V255h4.68a17,17,0,0,0,8.28-1.76,13.39,13.39,0,0,0,5-4.9,15.43,15.43,0,0,0,2.12-5.58,46.57,46.57,0,0,0,.49-7.29,36.91,36.91,0,0,0-.9-9.14A13.71,13.71,0,0,0,725.23,220.45ZM720.59,240a8.23,8.23,0,0,1-.85,3.33,5.1,5.1,0,0,1-2.25,2.25,9.38,9.38,0,0,1-4.32.81h-4.41V224.59h4.77a8.57,8.57,0,0,1,4.14.81,5.11,5.11,0,0,1,2.16,2.34,9.22,9.22,0,0,1,.81,3.55c.06,1.35.09,2.78.09,4.28S720.68,238.66,720.59,240Z" transform="translate(0)"/><path class="cls-2" d="M756.91,240.43a12.46,12.46,0,0,0-4.63-4.77,15.85,15.85,0,0,0-14.67,0,12.18,12.18,0,0,0-6,8.91,33.84,33.84,0,0,0-.36,5.13v15a33.84,33.84,0,0,0,.36,5.13,12.18,12.18,0,0,0,6,8.91,15.85,15.85,0,0,0,14.67,0,12.2,12.2,0,0,0,6-8.91,33.84,33.84,0,0,0,.36-5.13v-15a33.84,33.84,0,0,0-.36-5.13A12.45,12.45,0,0,0,756.91,240.43Zm-7.47,25.74a5.55,5.55,0,0,1-1.21,3.91,4.79,4.79,0,0,1-6.58,0,5.55,5.55,0,0,1-1.21-3.91V248.26a5.58,5.58,0,0,1,1.21-3.92,4.81,4.81,0,0,1,6.58,0,5.58,5.58,0,0,1,1.21,3.92Z" transform="translate(0)"/><path class="cls-2" d="M774.55,239.26V234.4h-9.18V280h9.18V252.94a10.85,10.85,0,0,1,.9-4.68,8.66,8.66,0,0,1,2.34-3.06,8,8,0,0,1,3-1.67,10.83,10.83,0,0,1,3.1-.49,7.45,7.45,0,0,1,2.79.54v-9.72A14,14,0,0,0,780,235.3,27.86,27.86,0,0,0,774.55,239.26Z" transform="translate(0)"/><path class="cls-2" d="M803.17,220.54H794V234.4H789.4v7.2H794v27.72a12.84,12.84,0,0,0,.58,3.73,9.93,9.93,0,0,0,1.85,3.47,9.48,9.48,0,0,0,3.37,2.52,12.42,12.42,0,0,0,5.27,1h3.78v-8.64c-1,0-1.88,0-2.57-.09a3.88,3.88,0,0,1-1.75-.54,2.45,2.45,0,0,1-1-1.35,7.64,7.64,0,0,1-.32-2.52V241.6h5.67v-7.2h-5.67Z" transform="translate(0)"/><path class="cls-2" d="M824.54,216.58a9.17,9.17,0,0,0-3.73,2.16,10.75,10.75,0,0,0-2.7,3.82,14.22,14.22,0,0,0-1,5.63v6.21h-4.5v7.2h4.5V280h9.18V241.6h6.84v-7.2H826.3v-6.66q0-3.15,2.7-3.15h4.14V216h-4.23A15.24,15.24,0,0,0,824.54,216.58Z" transform="translate(0)"/><path class="cls-2" d="M862.57,240.43a12.42,12.42,0,0,0-4.64-4.77,15.85,15.85,0,0,0-14.67,0,12.2,12.2,0,0,0-6,8.91,33.84,33.84,0,0,0-.36,5.13v15a33.84,33.84,0,0,0,.36,5.13,12.2,12.2,0,0,0,6,8.91,15.85,15.85,0,0,0,14.67,0,12.18,12.18,0,0,0,6-8.91,33.84,33.84,0,0,0,.36-5.13v-15a33.84,33.84,0,0,0-.36-5.13A12.45,12.45,0,0,0,862.57,240.43Zm-7.47,25.74a5.55,5.55,0,0,1-1.22,3.91,4.77,4.77,0,0,1-6.57,0,5.55,5.55,0,0,1-1.21-3.91V248.26a5.58,5.58,0,0,1,1.21-3.92,4.8,4.8,0,0,1,6.57,0,5.58,5.58,0,0,1,1.22,3.92Z" transform="translate(0)"/><path class="cls-2" d="M879.67,267.16V216h-9.18v51.84a18.63,18.63,0,0,0,.94,6.52,8.38,8.38,0,0,0,2.75,3.83,9.82,9.82,0,0,0,4.32,1.93,29.53,29.53,0,0,0,5.67.5v-8.64a6,6,0,0,1-3.56-1.22C880,270.08,879.67,268.9,879.67,267.16Z" transform="translate(0)"/><rect class="cls-2" x="889.57" y="215.95" width="9.18" height="9.18"/><rect class="cls-2" x="889.57" y="234.4" width="9.18" height="45.63"/><path class="cls-2" d="M931.15,240.43a12.42,12.42,0,0,0-4.64-4.77,15.85,15.85,0,0,0-14.67,0,12.39,12.39,0,0,0-4.63,4.77,12.23,12.23,0,0,0-1.35,4.14,33.78,33.78,0,0,0-.37,5.13v15a33.78,33.78,0,0,0,.37,5.13,12.23,12.23,0,0,0,1.35,4.14,12.39,12.39,0,0,0,4.63,4.77,15.85,15.85,0,0,0,14.67,0,12.12,12.12,0,0,0,6-8.91,32.54,32.54,0,0,0,.37-5.13v-15a32.54,32.54,0,0,0-.37-5.13A12.44,12.44,0,0,0,931.15,240.43Zm-7.47,25.74a5.55,5.55,0,0,1-1.22,3.91,4.77,4.77,0,0,1-6.57,0,5.55,5.55,0,0,1-1.21-3.91V248.26a5.58,5.58,0,0,1,1.21-3.92,4.8,4.8,0,0,1,6.57,0,5.58,5.58,0,0,1,1.22,3.92Z" transform="translate(0)"/><path class="cls-3" d="M151.62.48A547.13,547.13,0,0,0,199.83,45C402.86,183.06,559,98.6,751.13.48" transform="translate(0)"/></g></g></svg>