<svg xmlns="http://www.w3.org/2000/svg" width="261.755" height="184.287" viewBox="0 0 261.755 184.287">
  <g id="グループ_37" data-name="グループ 37" transform="translate(-630.612 -567.96)">
    <rect id="長方形_24" data-name="長方形 24" width="48.563" height="3" transform="translate(784.422 573.626)"/>
    <g id="グループ_36" data-name="グループ 36">
      <path id="パス_45" data-name="パス 45" d="M849.508,662.095h-.013c-.952,0-1.919-.032-2.874-.095a1.5,1.5,0,0,1-1.4-1.6,1.532,1.532,0,0,1,1.595-1.4c.89.058,1.79.089,2.677.089h.013a39.707,39.707,0,0,0,8.8-.983,1.5,1.5,0,1,1,.664,2.926A42.8,42.8,0,0,1,849.508,662.095Zm-14.472-2.615a1.5,1.5,0,0,1-.527-.095,42.526,42.526,0,0,1-10.84-6,1.5,1.5,0,0,1,1.82-2.385,39.489,39.489,0,0,0,10.074,5.58,1.5,1.5,0,0,1-.527,2.9Zm34.747-2.73a1.5,1.5,0,0,1-.742-2.8,39.721,39.721,0,0,0,9.084-7.085,1.5,1.5,0,0,1,2.168,2.075,42.73,42.73,0,0,1-9.77,7.618A1.481,1.481,0,0,1,869.783,656.75Zm-53.56-11.612a1.5,1.5,0,0,1-1.214-.617,42.5,42.5,0,0,1-5.754-10.977,1.5,1.5,0,1,1,2.832-.99,39.438,39.438,0,0,0,5.348,10.2,1.5,1.5,0,0,1-1.212,2.383Zm69.911-5.485a1.5,1.5,0,0,1-1.335-2.182,39.232,39.232,0,0,0,3.68-10.911,1.5,1.5,0,0,1,2.954.533,42.348,42.348,0,0,1-3.962,11.743A1.5,1.5,0,0,1,886.134,639.653Zm-77.715-16.842a1.5,1.5,0,0,1-1.5-1.435q-.039-.943-.042-1.9a42.85,42.85,0,0,1,1.284-10.428,1.5,1.5,0,0,1,2.91.732,39.74,39.74,0,0,0-1.194,9.7c0,.59.014,1.18.04,1.766a1.5,1.5,0,0,1-1.434,1.565Zm81.936-6.431a1.5,1.5,0,0,1-1.489-1.334,39.42,39.42,0,0,0-2.93-11.136,1.5,1.5,0,1,1,2.757-1.18,42.393,42.393,0,0,1,3.156,11.984,1.5,1.5,0,0,1-1.326,1.657A1.565,1.565,0,0,1,890.355,616.38Zm-76.156-16.5a1.5,1.5,0,0,1-1.286-2.271,42.752,42.752,0,0,1,7.843-9.592,1.5,1.5,0,1,1,2.023,2.215,39.729,39.729,0,0,0-7.292,8.919A1.5,1.5,0,0,1,814.2,599.876Zm66.863-5.246a1.5,1.5,0,0,1-1.153-.538,39.791,39.791,0,0,0-8.588-7.68,1.5,1.5,0,1,1,1.655-2.5,42.79,42.79,0,0,1,9.236,8.258,1.5,1.5,0,0,1-1.15,2.462Zm-49.393-10.712a1.5,1.5,0,0,1-.652-2.852,42.292,42.292,0,0,1,11.83-3.687,1.5,1.5,0,1,1,.465,2.963,39.293,39.293,0,0,0-10.993,3.428A1.507,1.507,0,0,1,831.669,583.918Zm29.654-2.328a1.5,1.5,0,0,1-.431-.064,39.674,39.674,0,0,0-11.4-1.663,1.5,1.5,0,0,1,0-3,42.66,42.66,0,0,1,12.258,1.79,1.5,1.5,0,0,1-.43,2.937Z" stroke="#000" stroke-miterlimit="10" stroke-width="1"/>
      <path id="パス_46" data-name="パス 46" d="M672.728,728.288c-.94,0-1.9-.031-2.841-.094a1,1,0,0,1,.132-2c1.3.086,2.616.112,3.9.073a1,1,0,0,1,.058,2Q673.355,728.287,672.728,728.288Zm5.2-.325a1,1,0,0,1-.124-1.992c1.287-.163,2.58-.391,3.84-.678a1,1,0,0,1,.444,1.951c-1.324.3-2.681.54-4.033.711A1.082,1.082,0,0,1,677.933,727.963Zm-11.95-.226a1.02,1.02,0,0,1-.164-.013c-1.343-.222-2.69-.513-4-.865a1,1,0,0,1,.517-1.931c1.25.335,2.533.611,3.812.823a1,1,0,0,1-.162,1.986Zm19.738-1.544a1,1,0,0,1-.317-1.948c1.231-.41,2.453-.886,3.636-1.412a1,1,0,1,1,.814,1.826c-1.242.554-2.526,1.053-3.817,1.483A1,1,0,0,1,685.721,726.193Zm-27.452-.519a1.011,1.011,0,0,1-.352-.064c-1.271-.478-2.536-1.025-3.758-1.626a1,1,0,0,1,.883-1.795c1.164.573,2.368,1.094,3.579,1.548a1,1,0,0,1-.352,1.937Zm34.747-2.732a1,1,0,0,1-.495-1.869c1.125-.64,2.233-1.343,3.292-2.09a1,1,0,0,1,1.153,1.635c-1.112.784-2.276,1.522-3.457,2.194A1,1,0,0,1,693.016,722.942Zm-41.914-.794a.988.988,0,0,1-.525-.149c-1.157-.717-2.292-1.5-3.373-2.323a1,1,0,0,1,1.213-1.59c1.03.785,2.111,1.53,3.212,2.212a1,1,0,0,1-.527,1.85Zm48.44-3.8a1,1,0,0,1-.652-1.758c.979-.844,1.93-1.747,2.829-2.686a1,1,0,0,1,1.445,1.383c-.942.985-1.941,1.933-2.97,2.819A1,1,0,0,1,699.542,718.343ZM644.754,717.3a1,1,0,0,1-.681-.268c-.994-.924-1.957-1.908-2.862-2.927a1,1,0,1,1,1.5-1.328c.862.971,1.779,1.909,2.728,2.79a1,1,0,0,1-.681,1.733Zm60.308-4.734a1,1,0,0,1-.786-1.618c.8-1.02,1.564-2.09,2.26-3.179a1,1,0,0,1,1.686,1.079c-.733,1.143-1.531,2.266-2.373,3.336A1,1,0,0,1,705.062,712.571Zm-65.607-1.24a1,1,0,0,1-.809-.412c-.8-1.1-1.558-2.254-2.246-3.424a1,1,0,1,1,1.724-1.014c.655,1.115,1.375,2.211,2.139,3.262a1,1,0,0,1-.808,1.588Zm69.914-5.486a.988.988,0,0,1-.453-.11,1,1,0,0,1-.437-1.344c.592-1.162,1.13-2.359,1.6-3.556a1,1,0,0,1,1.861.73c-.494,1.258-1.059,2.514-1.68,3.734A1,1,0,0,1,709.369,705.845Zm-73.963-1.4a1,1,0,0,1-.907-.579c-.574-1.235-1.091-2.513-1.54-3.8a1,1,0,0,1,1.889-.658c.426,1.222.919,2.438,1.465,3.613a1,1,0,0,1-.486,1.328A.989.989,0,0,1,635.406,704.447Zm76.882-6.033a.983.983,0,0,1-.273-.038,1,1,0,0,1-.69-1.234c.354-1.249.65-2.528.879-3.8a1,1,0,1,1,1.969.355c-.241,1.336-.552,2.679-.924,3.99A1,1,0,0,1,712.288,698.414Zm-79.518-1.506a1,1,0,0,1-.971-.763c-.321-1.322-.58-2.675-.771-4.023a1,1,0,1,1,1.981-.279c.181,1.282.428,2.571.734,3.829a1,1,0,0,1-.736,1.208A1.017,1.017,0,0,1,632.77,696.908Zm80.938-6.352c-.027,0-.055,0-.082,0a1,1,0,0,1-.916-1.078c.089-1.087.134-2.2.134-3.3l-.005-.6a1,1,0,0,1,.985-1.014h.015a1,1,0,0,1,1,.985l.005.625c0,1.158-.047,2.324-.14,3.465A1,1,0,0,1,713.708,690.556ZM631.65,689a1,1,0,0,1-1-.956q-.04-.933-.04-1.878,0-1.113.057-2.216a1,1,0,0,1,2,.1q-.055,1.05-.055,2.114,0,.9.038,1.788A1,1,0,0,1,631.7,689Zm81.938-6.432a1,1,0,0,1-.993-.889c-.143-1.287-.351-2.582-.619-3.85a1,1,0,1,1,1.957-.414c.281,1.332.5,2.691.65,4.043a1,1,0,0,1-.884,1.1A1.038,1.038,0,0,1,713.588,682.572Zm-81.519-1.543a1.248,1.248,0,0,1-.149-.01,1,1,0,0,1-.841-1.138c.2-1.343.471-2.693.8-4.014a1,1,0,1,1,1.939.487c-.316,1.258-.573,2.544-.764,3.824A1,1,0,0,1,632.069,681.029Zm79.869-6.268a1,1,0,0,1-.953-.7c-.389-1.233-.846-2.463-1.357-3.657a1,1,0,0,1,1.84-.787c.535,1.254,1.014,2.546,1.424,3.84a1,1,0,0,1-.954,1.3Zm-77.923-1.475a1,1,0,0,1-.941-1.338c.459-1.281.988-2.553,1.57-3.782a1,1,0,1,1,1.807.857c-.555,1.169-1.057,2.381-1.494,3.6A1,1,0,0,1,634.015,673.286Zm74.784-5.867a1,1,0,0,1-.878-.519c-.623-1.135-1.311-2.254-2.041-3.325a1,1,0,0,1,1.652-1.127c.767,1.123,1.488,2.3,2.143,3.49a1,1,0,0,1-.876,1.481Zm-71.367-1.35a1,1,0,0,1-.857-1.513c.7-1.166,1.464-2.313,2.274-3.407a1,1,0,1,1,1.607,1.19c-.771,1.042-1.5,2.134-2.165,3.244A1,1,0,0,1,637.432,666.069Zm66.862-5.245a1,1,0,0,1-.769-.359c-.828-.992-1.717-1.957-2.642-2.869a1,1,0,1,1,1.4-1.424c.971.956,1.9,1.97,2.774,3.012a1,1,0,0,1-.767,1.64Zm-62.112-1.177a1,1,0,0,1-.742-1.669c.91-1.009,1.881-1.987,2.886-2.905a1,1,0,1,1,1.349,1.477c-.958.875-1.883,1.8-2.75,2.767A1,1,0,0,1,642.182,659.647Zm56.421-4.429a.99.99,0,0,1-.629-.224c-1-.812-2.06-1.589-3.145-2.306a1,1,0,0,1,1.1-1.668c1.138.752,2.25,1.568,3.3,2.421a1,1,0,0,1-.63,1.777Zm-50.524-.957a1,1,0,0,1-.6-1.8c1.088-.816,2.229-1.589,3.391-2.3a1,1,0,0,1,1.039,1.709c-1.107.673-2.193,1.409-3.23,2.187A1,1,0,0,1,648.079,654.261Zm43.862-3.449a.994.994,0,0,1-.466-.117c-1.145-.6-2.332-1.162-3.532-1.654a1,1,0,0,1,.76-1.85c1.259.516,2.506,1.1,3.707,1.737a1,1,0,0,1-.469,1.884Zm-37.04-.7a1,1,0,0,1-.434-1.9c1.23-.592,2.5-1.129,3.772-1.6a1,1,0,0,1,.687,1.879c-1.212.444-2.42.954-3.591,1.519A1,1,0,0,1,654.9,650.111Zm29.655-2.329a.983.983,0,0,1-.287-.042c-1.247-.373-2.52-.687-3.786-.935a1,1,0,1,1,.384-1.963c1.329.261,2.667.591,3.976.982a1,1,0,0,1-.287,1.958Zm-22.158-.418a1,1,0,0,1-.25-1.968c1.314-.34,2.664-.621,4.01-.832a1,1,0,0,1,.309,1.977c-1.281.2-2.566.467-3.817.791A.994.994,0,0,1,662.4,647.364Zm14.323-1.117c-.032,0-.064,0-.1-.005a41.033,41.033,0,0,0-6.28-.117.987.987,0,0,1-1.056-.94,1,1,0,0,1,.94-1.056,42.5,42.5,0,0,1,6.588.123,1,1,0,0,1-.095,1.995Z"/>
      <path id="パス_47" data-name="パス 47" d="M706.723,752.247a32.728,32.728,0,1,1,32.728-32.728A32.765,32.765,0,0,1,706.723,752.247Zm0-63.456a30.728,30.728,0,1,0,30.728,30.728A30.762,30.762,0,0,0,706.723,688.791Z"/>
      <g id="グループ_29" data-name="グループ 29">
        <rect id="長方形_6" data-name="長方形 6" width="146.982" height="97.125" rx="6" transform="translate(694.419 628.221)" fill="#fff"/>
        <path id="パス_48" data-name="パス 48" d="M835.4,726.846H700.419a7.509,7.509,0,0,1-7.5-7.5V634.221a7.508,7.508,0,0,1,7.5-7.5H835.4a7.508,7.508,0,0,1,7.5,7.5v85.125A7.509,7.509,0,0,1,835.4,726.846ZM700.419,629.721a4.5,4.5,0,0,0-4.5,4.5v85.125a4.5,4.5,0,0,0,4.5,4.5H835.4a4.5,4.5,0,0,0,4.5-4.5V634.221a4.5,4.5,0,0,0-4.5-4.5Z"/>
      </g>
      <path id="長方形_7" data-name="長方形 7" d="M700.246,628.221H835.574a5.827,5.827,0,0,1,5.827,5.827H694.419a5.827,5.827,0,0,1,5.827-5.827Z" stroke="#000" stroke-miterlimit="10" stroke-width="1"/>
      <g id="グループ_1" data-name="グループ 1">
        <path id="パス_49" data-name="パス 49" d="M803.523,702.564H720a1.5,1.5,0,0,1,0-3h83.527a1.5,1.5,0,0,1,0,3Z"/>
        <path id="パス_50" data-name="パス 50" d="M782.156,709.686H720a1.5,1.5,0,0,1,0-3h62.16a1.5,1.5,0,0,1,0,3Z"/>
      </g>
      <g id="グループ_2" data-name="グループ 2">
        <path id="パス_51" data-name="パス 51" d="M816.295,693.6H787.908a1.5,1.5,0,0,1,0-3h26.887v-7.241a1.5,1.5,0,0,1,3,0V692.1A1.5,1.5,0,0,1,816.295,693.6Z" fill="#45bfa3"/>
        <path id="パス_52" data-name="パス 52" d="M725.542,693.6h-5.725a1.5,1.5,0,0,1-1.5-1.5V642.89a1.5,1.5,0,0,1,1.5-1.5h96.476a1.5,1.5,0,0,1,1.5,1.5v29.428a1.5,1.5,0,0,1-2.482,1.134l-23.08-20.006-25.422,22.035a1.5,1.5,0,0,1-1.922.036l-8.163-6.558-30.243,24.31A1.5,1.5,0,0,1,725.542,693.6Zm-4.225-3h3.7l30.77-24.735a1.5,1.5,0,0,1,1.879,0l8.127,6.53,25.459-22.068a1.5,1.5,0,0,1,1.965,0l21.579,18.706V644.39H721.317Z" fill="#37c7a6"/>
        <path id="パス_53" data-name="パス 53" d="M787.908,693.6H725.543a1.5,1.5,0,0,1-.939-2.669l31.182-25.069a1.5,1.5,0,0,1,1.879,0l8.125,6.532,25.459-22.066a1.5,1.5,0,0,1,1.965,0l24.063,20.858a1.5,1.5,0,0,1,.518,1.133v11.04a1.5,1.5,0,0,1-3,0V673l-22.564-19.557-25.422,22.034a1.5,1.5,0,0,1-1.922.036l-8.161-6.561L729.8,690.6h58.105a1.5,1.5,0,0,1,0,3Z" fill="#37c7a6"/>
      </g>
      <path id="パス_54" data-name="パス 54" d="M739.421,667.924a8.3,8.3,0,1,1,8.3-8.3A8.309,8.309,0,0,1,739.421,667.924Zm0-13.6a5.3,5.3,0,1,0,5.3,5.3A5.3,5.3,0,0,0,739.421,654.326Z" fill="#37c7a6"/>
      <g id="グループ_30" data-name="グループ 30">
        <rect id="長方形_8" data-name="長方形 8" width="57.627" height="95.183" rx="4" transform="translate(667.225 588.723)" fill="#fff"/>
        <path id="パス_55" data-name="パス 55" d="M720.852,685.406H671.225a5.507,5.507,0,0,1-5.5-5.5V592.723a5.506,5.506,0,0,1,5.5-5.5h49.627a5.506,5.506,0,0,1,5.5,5.5v87.183A5.507,5.507,0,0,1,720.852,685.406Zm-49.627-95.183a2.5,2.5,0,0,0-2.5,2.5v87.183a2.5,2.5,0,0,0,2.5,2.5h49.627a2.5,2.5,0,0,0,2.5-2.5V592.723a2.5,2.5,0,0,0-2.5-2.5Z"/>
      </g>
      <g id="グループ_31" data-name="グループ 31">
        <path id="パス_7" data-name="パス 7" d="M717.939,594H705.524v2.953a1.207,1.207,0,0,1-1.185,1.229h-16.6a1.207,1.207,0,0,1-1.185-1.229V594H674.138a2.226,2.226,0,0,0-2.184,2.266v79.468A2.226,2.226,0,0,0,674.138,678h43.8a2.226,2.226,0,0,0,2.184-2.266v-79.47A2.226,2.226,0,0,0,717.939,594Z" fill="#fff"/>
        <path id="パス_56" data-name="パス 56" d="M674.138,679.5a3.739,3.739,0,0,1-3.684-3.8V596.266A3.724,3.724,0,0,1,674.1,592.5h13.952v4.183h15.97V592.5h13.951a3.733,3.733,0,0,1,3.648,3.8v79.438a3.725,3.725,0,0,1-3.648,3.766Zm0-84a.722.722,0,0,0-.685.732v79.5a.735.735,0,0,0,.719.766h43.766a.72.72,0,0,0,.684-.732v-79.5a.735.735,0,0,0-.706-.764H707.024v1.452a2.706,2.706,0,0,1-2.65,2.731H687.739a2.72,2.72,0,0,1-2.685-2.764V595.5Zm29.886,1.472v0Zm-15.97-.03v0Z"/>
      </g>
      <path id="パス_57" data-name="パス 57" d="M709.9,626.483H682.175a3.5,3.5,0,0,1-3.5-3.5v-6.36a3.5,3.5,0,0,1,3.5-3.5H709.9a3.5,3.5,0,0,1,3.5,3.5v6.36A3.5,3.5,0,0,1,709.9,626.483Zm-27.728-10.36a.5.5,0,0,0-.5.5v6.36a.5.5,0,0,0,.5.5H709.9a.5.5,0,0,0,.5-.5v-6.36a.5.5,0,0,0-.5-.5Z" fill="#37c7a6"/>
      <path id="パス_58" data-name="パス 58" d="M709.9,643.318H682.175a3.5,3.5,0,0,1-3.5-3.5v-6.36a3.5,3.5,0,0,1,3.5-3.5H709.9a3.5,3.5,0,0,1,3.5,3.5v6.36A3.5,3.5,0,0,1,709.9,643.318Zm-27.728-10.36a.5.5,0,0,0-.5.5v6.36a.5.5,0,0,0,.5.5H709.9a.5.5,0,0,0,.5-.5v-6.36a.5.5,0,0,0-.5-.5Z" fill="#ebd559"/>
      <g id="グループ_32" data-name="グループ 32">
        <rect id="長方形_12" data-name="長方形 12" width="11.331" height="11.331" rx="2.098" transform="translate(766.939 604.425)" fill="#fff"/>
        <path id="パス_59" data-name="パス 59" d="M776.172,617.256h-7.135a3.6,3.6,0,0,1-3.6-3.6v-7.134a3.6,3.6,0,0,1,3.6-3.6h7.135a3.6,3.6,0,0,1,3.6,3.6v7.134A3.6,3.6,0,0,1,776.172,617.256Zm-7.135-11.331a.6.6,0,0,0-.6.6v7.134a.6.6,0,0,0,.6.6h7.135a.6.6,0,0,0,.6-.6v-7.134a.6.6,0,0,0-.6-.6Z"/>
      </g>
      <g id="グループ_33" data-name="グループ 33">
        <rect id="長方形_12-2" data-name="長方形 12" width="11.331" height="11.331" rx="2.098" transform="translate(766.939 586.942)" fill="#fff"/>
        <path id="パス_60" data-name="パス 60" d="M776.172,599.773h-7.135a3.6,3.6,0,0,1-3.6-3.6V589.04a3.6,3.6,0,0,1,3.6-3.6h7.135a3.6,3.6,0,0,1,3.6,3.6v7.135A3.6,3.6,0,0,1,776.172,599.773Zm-7.135-11.331a.6.6,0,0,0-.6.6v7.135a.6.6,0,0,0,.6.6h7.135a.6.6,0,0,0,.6-.6V589.04a.6.6,0,0,0-.6-.6Z"/>
      </g>
      <g id="グループ_34" data-name="グループ 34">
        <rect id="長方形_11" data-name="長方形 11" width="11.331" height="11.331" rx="2.097" transform="translate(766.939 569.46)" fill="#fff"/>
        <path id="パス_61" data-name="パス 61" d="M776.173,582.291h-7.137a3.6,3.6,0,0,1-3.6-3.6v-7.137a3.6,3.6,0,0,1,3.6-3.6h7.137a3.6,3.6,0,0,1,3.6,3.6v7.137A3.6,3.6,0,0,1,776.173,582.291Zm-7.137-11.331a.6.6,0,0,0-.6.6v7.137a.6.6,0,0,0,.6.6h7.137a.6.6,0,0,0,.6-.6v-7.137a.6.6,0,0,0-.6-.6Z"/>
      </g>
      <rect id="長方形_25" data-name="長方形 25" width="48.563" height="3" transform="translate(784.422 591.108)"/>
      <rect id="長方形_26" data-name="長方形 26" width="48.563" height="3" transform="translate(784.422 608.591)"/>
      <g id="グループ_35" data-name="グループ 35">
        <path id="パス_8" data-name="パス 8" d="M852.84,694.72l-23.107-5.592,6.249,22.938,4.931-8.572,8.59,8.348,3.5-3.6-8.519-8.279Z" fill="#fff"/>
        <path id="パス_62" data-name="パス 62" d="M835.982,713.566a1.374,1.374,0,0,1-.191-.012,1.5,1.5,0,0,1-1.256-1.093l-6.249-22.939a1.5,1.5,0,0,1,1.8-1.852l23.106,5.592a1.5,1.5,0,0,1,.445,2.728l-6.738,4.229,7.15,6.948a1.5,1.5,0,0,1,.029,2.121l-3.5,3.6a1.5,1.5,0,0,1-2.12.03l-7.207-7-3.969,6.9A1.5,1.5,0,0,1,835.982,713.566Zm4.931-11.572a1.5,1.5,0,0,1,1.045.424l7.515,7.3,1.409-1.449-7.444-7.234a1.5,1.5,0,0,1,.249-2.346l5.341-3.351-17.18-4.158,4.633,17.007,3.132-5.444a1.5,1.5,0,0,1,1.092-.737A1.462,1.462,0,0,1,840.913,701.994Z"/>
      </g>
    </g>
  </g>
</svg>
