<svg xmlns="http://www.w3.org/2000/svg" viewBox="0 0 622.21 395.43"><defs><style>.cls-1,.cls-6{fill:#191313;}.cls-1{stroke:#191313;}.cls-2{fill:#fd9a01;}.cls-3{fill:#31a9ff;}.cls-4{fill:#fd61f5;}.cls-14,.cls-5{fill:#fff;}.cls-5,.cls-6{fill-rule:evenodd;}.cls-11,.cls-12,.cls-15,.cls-7,.cls-9{fill:none;}.cls-7{stroke:#ebd559;stroke-linejoin:round;}.cls-10,.cls-11,.cls-12,.cls-13,.cls-14,.cls-15,.cls-7,.cls-9{stroke-width:3px;}.cls-8{fill:#ebd559;}.cls-11,.cls-13,.cls-14,.cls-15,.cls-9{stroke:#000;}.cls-10,.cls-11,.cls-12,.cls-13,.cls-14,.cls-15,.cls-9{stroke-miterlimit:10;}.cls-10{fill:#45bfa3;}.cls-10,.cls-12{stroke:#45bfa3;}.cls-11{stroke-dasharray:11.86 11.86;}.cls-12,.cls-13,.cls-14,.cls-15{stroke-linecap:round;}</style></defs><g id="レイヤー_2" data-name="レイヤー 2"><g id="レイヤー_13" data-name="レイヤー 13"><rect class="cls-1" x="40.82" y="175.71" width="100" height="100" rx="14" transform="matrix(0.94, -0.33, 0.33, 0.94, -70.04, 43.18)"/><path class="cls-2" d="M71,254.16l-.23-43.83,7.58-2.68,27.38,34.23-8.43,3-5-6.57-13.06,4.62.24,8.25Zm8-18.67,8.82-3.12-9.27-12.18Z"/><path class="cls-2" d="M98,211l7.24-2.56,10.58,29.91-7.24,2.56Z"/><circle class="cls-2" cx="99.71" cy="204.35" r="4"/><rect class="cls-1" x="171.9" y="18.51" width="100" height="100" rx="14" transform="translate(-4.57 119.92) rotate(-29.95)"/><path class="cls-3" d="M185.91,64.88l12.61-7.26a23.13,23.13,0,0,1,6.11-2.53,14.49,14.49,0,0,1,5.58-.33A11.32,11.32,0,0,1,215,56.61a12.47,12.47,0,0,1,3.65,4.09,13.3,13.3,0,0,1,1.91,6,12,12,0,0,1-1,5.47A15.9,15.9,0,0,1,216.2,77,24.43,24.43,0,0,1,211,80.89l-4.11,2.37,7.53,13.06-7.82,4.51Zm17.55,12.39,3.2-1.84a17.2,17.2,0,0,0,2.67-1.89,7.38,7.38,0,0,0,1.82-2.26,5.48,5.48,0,0,0,.58-2.61,6.51,6.51,0,0,0-1-3,5.37,5.37,0,0,0-4.25-3A9.45,9.45,0,0,0,201,64.11l-3.82,2.2Z"/><path class="cls-3" d="M242.56,52.53a17.54,17.54,0,0,0-7.42,2.15,6.26,6.26,0,0,0-2.47,2.26,2.26,2.26,0,0,0,0,2.29,2.49,2.49,0,0,0,1.91,1.26,14.33,14.33,0,0,0,4.42-.58l2-.47a13.55,13.55,0,0,1,7.08-.12,8.11,8.11,0,0,1,4.72,4,8.93,8.93,0,0,1,.6,8.24q-1.72,4.18-7,7.24a23.88,23.88,0,0,1-10.42,3.42l-1.51-6.58a22.39,22.39,0,0,0,4.28-.6,15,15,0,0,0,4-1.6,7,7,0,0,0,2.93-2.64,2.48,2.48,0,0,0,0-2.46,2.39,2.39,0,0,0-2.1-1.26,19.08,19.08,0,0,0-4.72.78l-2.06.5A12.52,12.52,0,0,1,230,68.2a8.59,8.59,0,0,1-4.49-4.1,8.65,8.65,0,0,1-.69-7.66q1.44-3.94,6.47-6.84a23.87,23.87,0,0,1,9.8-3.29Z"/><rect class="cls-1" x="514.1" y="191.38" width="100" height="100" rx="14" transform="translate(74.77 -128.79) rotate(13.94)"/><path class="cls-4" d="M553.78,261.21q-.88-3.87-2.07-7.9a26.09,26.09,0,0,0-3.27-7.13c-.7.47-1.61,1.15-2.73,2S543.45,250,542.3,251s-2.26,2.08-3.33,3.21-1.87,2-2.42,2.68L526,254.31a111.51,111.51,0,0,1,8.6-8.42q4.8-4.24,10.58-8.93l-8.38-23.61L548,216.13,552.88,230l11-9.91,10.56,2.62-18.27,16.53a128.42,128.42,0,0,1,5.65,14.2q2,6.32,3.07,10.54Z"/><path class="cls-4" d="M592,269.69q-1.19.06-2.7,0c-1,0-2.06-.1-3.14-.22s-2.19-.26-3.3-.43-2.16-.39-3.16-.64a19.18,19.18,0,0,1-6.15-2.64,13.33,13.33,0,0,1-4-4.2,13.51,13.51,0,0,1-1.77-5.49,18.79,18.79,0,0,1,.53-6.52,22.29,22.29,0,0,1,2.47-6.17,14.5,14.5,0,0,1,3.74-4.21,11.28,11.28,0,0,1,4.82-2,13.94,13.94,0,0,1,5.76.32,12.88,12.88,0,0,1,3,1.09,16.86,16.86,0,0,1,2.5,1.62l3.6-14.49,8.24,2Zm-15.2-18.45a10.42,10.42,0,0,0,.19,6.57,6.1,6.1,0,0,0,4.51,3.58c.74.18,1.43.33,2.07.43s1.17.16,1.59.19l3.72-15a7.45,7.45,0,0,0-1.81-1.33,10.31,10.31,0,0,0-2.43-.95Q578.74,243.29,576.76,251.24Z"/><path class="cls-5" d="M435.78,110.21c2.81.88,4.08-.77,4.26-2.29.17-1.36.57-5,1.13-9.78-16.42,1.51-18.42-10.08-18.42-10.08-1.8-7-5.35-9.19-5.35-9.19-4.78-4.21.83-3.45.83-3.45,5.71,1.12,8.07,7,8.07,7,4.05,9.41,12.69,7.89,16.14,6.82,1-3.65,2.77-6,4.59-7.23-12.58-3-25.39-9.6-22.69-31.62a22.36,22.36,0,0,1,7.81-14.69c-.42-1.53-1.67-7.61,2.43-15.14,0,0,5-1,15.08,7.83a54.85,54.85,0,0,1,28.77,3.53c11.89-6.09,16.51-4,16.51-4,2.17,8.3-.52,13.9-1.29,15.28a22.34,22.34,0,0,1,4,16.15C495,81.47,480.92,84.68,468,84.54c1.84,2,3.25,5.76,2.59,11.12-.94,7.68-1.77,13.87-2,15.75-.19,1.54.62,3.46,3.61,3.25"/><path class="cls-6" d="M467.69.44a57.9,57.9,0,0,0-31.9,109.77c2.81.88,4.08-.77,4.27-2.29.16-1.36.56-5,1.12-9.78-16.41,1.51-18.42-10.08-18.42-10.08-1.8-7-5.35-9.19-5.35-9.19-4.78-4.21.83-3.45.83-3.45,5.71,1.12,8.07,7,8.07,7,4.05,9.41,12.69,7.89,16.14,6.82A12.39,12.39,0,0,1,447,82c-12.58-3-25.39-9.59-22.69-31.62a22.36,22.36,0,0,1,7.81-14.69c-.42-1.53-1.67-7.61,2.43-15.14,0,0,5-.95,15.08,7.83a54.85,54.85,0,0,1,28.77,3.53C490.33,25.84,495,28,495,28c2.17,8.3-.52,13.9-1.29,15.28a22.34,22.34,0,0,1,4,16.15C495,81.48,480.93,84.69,468,84.54c1.84,2,3.25,5.76,2.59,11.12-.94,7.68-1.77,13.87-2,15.76-.19,1.53.63,3.45,3.61,3.24A57.9,57.9,0,0,0,467.69.44Z"/><polygon class="cls-7" points="34.23 307.03 46.12 320.74 37.27 336.57 25.38 322.87 34.23 307.03"/><polygon class="cls-8" points="457.02 201.53 462.18 218.93 447.57 229.69 442.41 212.29 457.02 201.53"/><circle class="cls-9" cx="498.32" cy="318.21" r="9.5"/><circle class="cls-9" cx="193.82" cy="187.71" r="8"/><circle class="cls-10" cx="339.82" cy="42.71" r="8"/><line class="cls-9" x1="0.66" y1="129.59" x2="6.05" y2="126.95"/><line class="cls-11" x1="16.7" y1="121.74" x2="75.27" y2="93.07"/><line class="cls-9" x1="80.6" y1="90.46" x2="85.99" y2="87.83"/><line class="cls-12" x1="532.82" y1="133.71" x2="527.82" y2="153.71"/><line class="cls-12" x1="551.23" y1="118.66" x2="546.23" y2="138.66"/><line class="cls-12" x1="570.75" y1="98.69" x2="565.75" y2="118.69"/><line class="cls-12" x1="594.75" y1="81.69" x2="589.75" y2="101.69"/><path class="cls-13" d="M258.34,300.81l123.25,16.43,16.15-10.5c7.58-184-67.28-187.61-104.71-160.22C269.85,199.31,248.61,256.17,258.34,300.81Z"/><path class="cls-14" d="M200.82,393.93c16.12-63.95,46.56-112.3,122.34-104.08C388,283.46,398.47,333,405.32,393.93"/><path class="cls-14" d="M370.88,299.85c-26.92,34.41-117,46.7-97.32-6q3.81-1.26,7.88-2.2c-13.69,41.59,59.13,31.35,81.15,3.26A50.06,50.06,0,0,1,370.88,299.85Z"/><path class="cls-14" d="M375.18,205.55c0-.2,0-.4,0-.6,0-37.82-26.16-68.47-58.43-68.47S258.34,167.13,258.34,205c0,26.89,13.24,50.15,32.48,61.35,2.74,8.24,4,16.24,2.95,23.86a103.14,103.14,0,0,0-11.9,2C268.19,333.77,341,323.53,363,295.45q-2.55-1.12-5.1-2l5.94-47.94,4.95-8.57C392.54,224.12,392.72,196.9,375.18,205.55Z"/><path class="cls-13" d="M291.21,152.91q24,45.35,76.75,74.8a1.49,1.49,0,0,0,2.17-1l4.4-21.05a11.17,11.17,0,0,0,.23-2.38C374.21,166,348.27,136,316.34,136c-24,0-44.57,16.92-53.58,41.13a.29.29,0,0,0,.34.37C276.47,175.23,284.22,166.2,291.21,152.91Z"/><path class="cls-14" d="M293,299.89c1.29-3.36,1.47-8.61,1.11-14.79"/><path class="cls-15" d="M281.48,259.93c5.15,4.68,11.58,7.61,18.53,9.82"/></g></g></svg>