<svg xmlns="http://www.w3.org/2000/svg" viewBox="0 0 737.6 349.9"><defs><style>.cls-1{fill:#0b315e;stroke:#0b315e;stroke-miterlimit:10;}</style></defs><g id="レイヤー_2" data-name="レイヤー 2"><g id="TOP"><polygon class="cls-1" points="18.98 208.52 18.82 208.52 8.34 178.36 0.5 178.36 0.5 235.32 8.66 235.32 8.66 200.68 8.82 200.68 16.82 225.16 20.9 225.16 28.98 200.68 29.14 200.68 29.14 235.32 37.3 235.32 37.3 178.36 29.38 178.36 18.98 208.52"/><path class="cls-1" d="M57.36,178.36l-12.72,57H52.8l2.4-12.24H66.32l2.4,12.24h8.16l-12.72-57Zm-.72,37,4-20.64h.16l4,20.64Z" transform="translate(-3.34)"/><polygon class="cls-1" points="105.94 178.36 97.78 178.36 85.86 204.36 85.7 204.36 85.7 178.36 77.54 178.36 77.54 235.32 85.7 235.32 85.7 218.28 90.1 210.04 99.38 235.32 108.02 235.32 94.82 201.16 105.94 178.36"/><rect class="cls-1" x="111.86" y="178.36" width="8.16" height="56.96"/><path class="cls-1" d="M155.2,178.36l-12.72,57h8.16l2.4-12.24h11.12l2.4,12.24h8.16l-12.72-57Zm-.72,37,4-20.64h.16l4,20.64Z" transform="translate(-3.34)"/><path class="cls-1" d="M190.8,178.36H178.72v57h11.36q7.28,0,11.16-3.8t3.88-11.8V193.08q0-7-3.64-10.88T190.8,178.36ZM197,220.52q0,3.69-1.44,5.4t-4.88,1.72h-3.76V186h3.76c2.4,0,4.05.62,5,1.84a8.67,8.67,0,0,1,1.36,5.2Z" transform="translate(-3.34)"/><path class="cls-1" d="M221.84,178.36l-12.72,57h8.16l2.4-12.24H230.8l2.4,12.24h8.16l-12.72-57Zm-.72,37,4-20.64h.16l4,20.64Z" transform="translate(-3.34)"/><path class="cls-1" d="M267.52,181.64a12.4,12.4,0,0,0-9.36-3.76,14.19,14.19,0,0,0-5.4,1,12.68,12.68,0,0,0-4.2,2.76,12.2,12.2,0,0,0-2.72,4.16,13.9,13.9,0,0,0-1,5.2v31.36a14.52,14.52,0,0,0,1.24,6.44,12.23,12.23,0,0,0,3.16,4.12,11,11,0,0,0,4.32,2.24,18.11,18.11,0,0,0,4.72.64,12.09,12.09,0,0,0,5.08-1.08,13.37,13.37,0,0,0,4.12-2.92,13.79,13.79,0,0,0,2.76-4.2,12.79,12.79,0,0,0,1-5v-3.52h-8.16v2.8a7.11,7.11,0,0,1-.48,2.8,4.8,4.8,0,0,1-1.2,1.76,5,5,0,0,1-1.72.92,5.87,5.87,0,0,1-1.72.28c-1.87,0-3.16-.56-3.88-1.68A7.53,7.53,0,0,1,253,221.8V192.68a10.05,10.05,0,0,1,1-4.76c.66-1.25,2-1.88,4-1.88a4.43,4.43,0,0,1,3.68,1.76,6.66,6.66,0,0,1,1.36,4.16v2.72h8.16v-3.2a14.87,14.87,0,0,0-1-5.48A13.5,13.5,0,0,0,267.52,181.64Z" transform="translate(-3.34)"/><polygon class="cls-1" points="292.82 202.76 282.74 202.76 282.74 178.36 274.58 178.36 274.58 235.32 282.74 235.32 282.74 209.96 292.82 209.96 292.82 235.32 300.98 235.32 300.98 178.36 292.82 178.36 292.82 202.76"/><rect class="cls-1" x="308.9" y="178.36" width="8.16" height="56.96"/><path class="cls-1" d="M355.27,205.4h-3.92V186h1.43q-.22-3.81-.09-7.68h-9.5v57h8.16V213.08h4.16a20.39,20.39,0,0,0,4.18-.4,65.7,65.7,0,0,1-3.09-7.34C356.19,205.38,355.75,205.4,355.27,205.4Z" transform="translate(-3.34)"/><path class="cls-1" d="M386.71,202.44a3.82,3.82,0,0,0-2.92,1.16,5,5,0,0,0-1.08,3.48V223a4.94,4.94,0,0,0,1.08,3.48,4.26,4.26,0,0,0,5.84,0,4.94,4.94,0,0,0,1.08-3.48V207.08a5,5,0,0,0-1.08-3.48A3.8,3.8,0,0,0,386.71,202.44Z" transform="translate(-3.34)"/><path class="cls-1" d="M712.59,97.49C655.42,6.81,544.77-26.16,465.44,23.85c-54.2,34.16-110.82,99-112.75,154.51h2.74a18.35,18.35,0,0,1,5.92.88,11.36,11.36,0,0,1,4.64,3.12,12.17,12.17,0,0,1,2.88,5.24,32.47,32.47,0,0,1,.8,8.12,39.52,39.52,0,0,1-.44,6.48,13.44,13.44,0,0,1-1.88,5,11.86,11.86,0,0,1-4.48,4.36,11.59,11.59,0,0,1-3.18,1.16c6,12.29,16.19,23.49,31.33,33,64.65,40.52,107.24-5.68,261.27,95.08C733.64,394,769.76,188.18,712.59,97.49ZM398.87,221.72a29.13,29.13,0,0,1-.32,4.56,10.84,10.84,0,0,1-1.2,3.68,11,11,0,0,1-4.12,4.24,14.08,14.08,0,0,1-13,0,11,11,0,0,1-4.12-4.24,11.3,11.3,0,0,1-1.2-3.68,30.39,30.39,0,0,1-.32-4.56V208.36a30.59,30.59,0,0,1,.32-4.56,11.46,11.46,0,0,1,1.2-3.68,11.1,11.1,0,0,1,4.12-4.24,14.08,14.08,0,0,1,13,0,10.84,10.84,0,0,1,5.32,7.92,29.31,29.31,0,0,1,.32,4.56Zm41.44-20.56h-5v22.48a7.24,7.24,0,0,0,.28,2.24,2.22,2.22,0,0,0,.92,1.2,3.42,3.42,0,0,0,1.56.48c.62.06,1.38.08,2.28.08v7.68H437a11,11,0,0,1-4.68-.88,8.38,8.38,0,0,1-3-2.24,8.88,8.88,0,0,1-1.64-3.08,11.63,11.63,0,0,1-.52-3.32V201.16h-3.28v1.76a6.59,6.59,0,0,0-2.48-.48,9.88,9.88,0,0,0-2.76.44,7.37,7.37,0,0,0-2.68,1.48,7.88,7.88,0,0,0-2.08,2.72,9.7,9.7,0,0,0-.8,4.16v24.08h-8.16V194.76H413v4.32a25.38,25.38,0,0,1,4.88-3.52,12.52,12.52,0,0,1,5.92-1.28v.48h3.28V182.44h8.16v12.32h5ZM458.71,186H455c-1.6,0-2.4.94-2.4,2.8v5.92h6.08v6.4h-6.08v34.16h-8.16V201.16h-4v-6.4h4v-5.52a12.75,12.75,0,0,1,.88-5,9.69,9.69,0,0,1,2.4-3.4,8.35,8.35,0,0,1,3.32-1.92,13.69,13.69,0,0,1,3.88-.56h3.76Zm26.08,35.68a30.39,30.39,0,0,1-.32,4.56,10.84,10.84,0,0,1-1.2,3.68,11,11,0,0,1-4.12,4.24,14.08,14.08,0,0,1-13,0A11,11,0,0,1,462,230a10.84,10.84,0,0,1-1.2-3.68,30.39,30.39,0,0,1-.32-4.56V208.36a30.59,30.59,0,0,1,.32-4.56,10.84,10.84,0,0,1,5.32-7.92,14.08,14.08,0,0,1,13,0,10.84,10.84,0,0,1,5.32,7.92,30.59,30.59,0,0,1,.32,4.56Zm17.68,14.08a26.49,26.49,0,0,1-5-.44,8.65,8.65,0,0,1-3.84-1.72,7.39,7.39,0,0,1-2.44-3.4,16.55,16.55,0,0,1-.84-5.8V178.36h8.16v45.52a4.48,4.48,0,0,0,.84,3.16,5.29,5.29,0,0,0,3.16,1.08Zm11.36-.48h-8.16V194.76h8.16Zm0-48.8h-8.16v-8.16h8.16Zm30.32,35.2a30.39,30.39,0,0,1-.32,4.56,10.84,10.84,0,0,1-1.2,3.68,11,11,0,0,1-4.12,4.24,14.08,14.08,0,0,1-13,0,11,11,0,0,1-4.12-4.24,10.84,10.84,0,0,1-1.2-3.68,30.39,30.39,0,0,1-.32-4.56V208.36a30.59,30.59,0,0,1,.32-4.56,10.84,10.84,0,0,1,5.32-7.92,14.08,14.08,0,0,1,13,0,10.84,10.84,0,0,1,5.32,7.92,30.59,30.59,0,0,1,.32,4.56Z" transform="translate(-3.34)"/><path class="cls-1" d="M472.63,202.44a3.8,3.8,0,0,0-2.92,1.16,5,5,0,0,0-1.08,3.48V223a4.94,4.94,0,0,0,1.08,3.48,4.26,4.26,0,0,0,5.84,0,4.94,4.94,0,0,0,1.08-3.48V207.08a5,5,0,0,0-1.08-3.48A3.8,3.8,0,0,0,472.63,202.44Z" transform="translate(-3.34)"/><path class="cls-1" d="M532,202.44a3.8,3.8,0,0,0-2.92,1.16,5,5,0,0,0-1.08,3.48V223a4.94,4.94,0,0,0,1.08,3.48,4.26,4.26,0,0,0,5.84,0A4.94,4.94,0,0,0,536,223V207.08a5,5,0,0,0-1.08-3.48A3.8,3.8,0,0,0,532,202.44Z" transform="translate(-3.34)"/><path class="cls-1" d="M359.11,204.68a4.45,4.45,0,0,0,2-2,7.23,7.23,0,0,0,.76-3c.08-1.17.12-2.48.12-3.92s0-2.6-.08-3.8a8.12,8.12,0,0,0-.72-3.16,4.51,4.51,0,0,0-1.92-2.08,7.61,7.61,0,0,0-3.68-.72h-2.81a70.71,70.71,0,0,0,3.82,19.3A6.84,6.84,0,0,0,359.11,204.68Z" transform="translate(-3.34)"/><rect class="cls-1" x="419.69" y="194.76" width="0.8" height="6.4"/></g></g></svg>