<svg xmlns="http://www.w3.org/2000/svg" viewBox="0 0 708.71 217"><defs><style>.cls-1{fill:#0b315e;}</style></defs><g id="レイヤー_2" data-name="レイヤー 2"><g id="レスポンシブ"><path class="cls-1" d="M380,161.73a13.55,13.55,0,0,0,5.71-1.22,15,15,0,0,0,4.64-3.28,15.57,15.57,0,0,0,3.1-4.73,14.25,14.25,0,0,0,1.13-5.62v-4h-9.18v3.15a8,8,0,0,1-.54,3.15,5.49,5.49,0,0,1-1.35,2,5.78,5.78,0,0,1-1.94,1,6.65,6.65,0,0,1-1.93.32h0a60.4,60.4,0,0,1-4.21,8.63A20.28,20.28,0,0,0,380,161.73Z"/><path class="cls-1" d="M390.3,100.8a13.58,13.58,0,0,0-9-4.17q1.08,5.09,1.88,10.45a5.37,5.37,0,0,1,.6.65,7.43,7.43,0,0,1,1.53,4.68v3.06h9.18v-3.6a16.59,16.59,0,0,0-1.13-6.17A15,15,0,0,0,390.3,100.8Z"/><polygon class="cls-1" points="422.52 124.56 411.18 124.56 411.18 97.11 402 97.11 402 161.19 411.18 161.19 411.18 132.66 422.52 132.66 422.52 161.19 431.7 161.19 431.7 97.11 422.52 97.11 422.52 124.56"/><rect class="cls-1" x="440.61" y="97.11" width="9.18" height="64.08"/><path class="cls-1" d="M501.09,101.61a12.78,12.78,0,0,0-5.22-3.51,20.47,20.47,0,0,0-6.66-1H475.44v64.08h9.18v-25h4.68a17,17,0,0,0,8.28-1.76,13.39,13.39,0,0,0,5-4.9,15.23,15.23,0,0,0,2.11-5.58,45.25,45.25,0,0,0,.5-7.29,36.91,36.91,0,0,0-.9-9.14A13.71,13.71,0,0,0,501.09,101.61Zm-4.64,19.53a8.23,8.23,0,0,1-.85,3.33,5.1,5.1,0,0,1-2.25,2.25,9.38,9.38,0,0,1-4.32.81h-4.41V105.75h4.77a8.57,8.57,0,0,1,4.14.81,5.11,5.11,0,0,1,2.16,2.34,9.22,9.22,0,0,1,.81,3.55c.06,1.35.09,2.78.09,4.28S496.54,119.82,496.45,121.14Z"/><path class="cls-1" d="M532.77,121.59a12.42,12.42,0,0,0-4.64-4.77,15.85,15.85,0,0,0-14.67,0,12.2,12.2,0,0,0-6,8.91,33.84,33.84,0,0,0-.36,5.13v15a33.84,33.84,0,0,0,.36,5.13,12.2,12.2,0,0,0,6,8.91,15.85,15.85,0,0,0,14.67,0,12.18,12.18,0,0,0,6-8.91,33.84,33.84,0,0,0,.36-5.13v-15a33.84,33.84,0,0,0-.36-5.13A12.45,12.45,0,0,0,532.77,121.59Zm-7.47,25.74a5.55,5.55,0,0,1-1.22,3.91,4.77,4.77,0,0,1-6.57,0,5.55,5.55,0,0,1-1.21-3.91V129.42a5.58,5.58,0,0,1,1.21-3.92,4.8,4.8,0,0,1,6.57,0,5.58,5.58,0,0,1,1.22,3.92Z"/><path class="cls-1" d="M550.41,120.42v-4.86h-9.18v45.63h9.18V134.1a10.85,10.85,0,0,1,.9-4.68,8.66,8.66,0,0,1,2.34-3.06,8.07,8.07,0,0,1,3-1.67,11,11,0,0,1,3.11-.49,7.45,7.45,0,0,1,2.79.54V115a14,14,0,0,0-6.66,1.44A27.86,27.86,0,0,0,550.41,120.42Z"/><path class="cls-1" d="M579,101.7h-9.18v13.86h-4.59v7.2h4.59v27.72a12.84,12.84,0,0,0,.58,3.73,9.93,9.93,0,0,0,1.85,3.47,9.48,9.48,0,0,0,3.37,2.52,12.42,12.42,0,0,0,5.27,1h3.78v-8.64c-1,0-1.88,0-2.57-.09a3.88,3.88,0,0,1-1.75-.54,2.51,2.51,0,0,1-1-1.35,8,8,0,0,1-.31-2.52V122.76h5.67v-7.2H579Z"/><path class="cls-1" d="M600.4,97.74a9.17,9.17,0,0,0-3.73,2.16,10.75,10.75,0,0,0-2.7,3.82,14.22,14.22,0,0,0-1,5.63v6.21h-4.5v7.2H593v38.43h9.18V122.76H609v-7.2h-6.84V108.9q0-3.15,2.7-3.15H609V97.11h-4.23A15.24,15.24,0,0,0,600.4,97.74Z"/><path class="cls-1" d="M638.43,121.59a12.42,12.42,0,0,0-4.64-4.77,15.85,15.85,0,0,0-14.67,0,12.42,12.42,0,0,0-4.64,4.77,12.22,12.22,0,0,0-1.34,4.14,32.54,32.54,0,0,0-.37,5.13v15a32.54,32.54,0,0,0,.37,5.13,12.22,12.22,0,0,0,1.34,4.14,12.42,12.42,0,0,0,4.64,4.77,15.85,15.85,0,0,0,14.67,0,12.42,12.42,0,0,0,4.64-4.77,12.68,12.68,0,0,0,1.34-4.14,33.78,33.78,0,0,0,.37-5.13v-15a33.78,33.78,0,0,0-.37-5.13A12.68,12.68,0,0,0,638.43,121.59ZM631,147.33a5.55,5.55,0,0,1-1.22,3.91,4.77,4.77,0,0,1-6.57,0,5.55,5.55,0,0,1-1.21-3.91V129.42a5.58,5.58,0,0,1,1.21-3.92,4.8,4.8,0,0,1,6.57,0,5.58,5.58,0,0,1,1.22,3.92Z"/><path class="cls-1" d="M655.52,148.32V97.11h-9.17V149a18.63,18.63,0,0,0,.94,6.52A8.37,8.37,0,0,0,650,159.3a9.82,9.82,0,0,0,4.32,1.93,29.53,29.53,0,0,0,5.67.5v-8.64a5.94,5.94,0,0,1-3.55-1.22C655.84,151.24,655.52,150.06,655.52,148.32Z"/><rect class="cls-1" x="665.42" y="97.11" width="9.18" height="9.18"/><rect class="cls-1" x="665.42" y="115.56" width="9.18" height="45.63"/><path class="cls-1" d="M708.35,125.73a12.2,12.2,0,0,0-6-8.91,15.85,15.85,0,0,0-14.67,0,12.18,12.18,0,0,0-6,8.91,33.84,33.84,0,0,0-.36,5.13v15a33.84,33.84,0,0,0,.36,5.13,12.18,12.18,0,0,0,6,8.91,15.85,15.85,0,0,0,14.67,0,12.2,12.2,0,0,0,6-8.91,33.84,33.84,0,0,0,.36-5.13v-15A33.84,33.84,0,0,0,708.35,125.73Zm-8.82,21.6a5.55,5.55,0,0,1-1.21,3.91,4.77,4.77,0,0,1-6.57,0,5.55,5.55,0,0,1-1.22-3.91V129.42a5.58,5.58,0,0,1,1.22-3.92,4.8,4.8,0,0,1,6.57,0,5.58,5.58,0,0,1,1.21,3.92Z"/><path class="cls-1" d="M303.81,105.75h-4.23v46.8h4.23q3.87,0,5.49-1.94t1.62-6.07V113.67a9.7,9.7,0,0,0-1.53-5.85Q307.86,105.75,303.81,105.75Z"/><polygon class="cls-1" points="267.63 115.56 263.13 138.78 272.31 138.78 267.81 115.56 267.63 115.56"/><polygon class="cls-1" points="157.56 115.56 153.06 138.78 162.24 138.78 157.74 115.56 157.56 115.56"/><path class="cls-1" d="M369.78,158.49a14,14,0,0,1-3.56-4.64,16.39,16.39,0,0,1-1.39-7.24V111.33a15.61,15.61,0,0,1,1.08-5.85A13.77,13.77,0,0,1,369,100.8a14.22,14.22,0,0,1,4.72-3.11,15.9,15.9,0,0,1,6.08-1.12c.54,0,1.06,0,1.57.06-11.44-54.15-47-84.2-162-95.2C181-2.23,144,1.21,112.67,10.91,47.21,31.19,2.83,59.88.27,107.3c-2.71,50.07,14.78,82.64,58.29,98.13C86.07,215.22,93.39,217,118.07,217c9,0,29,0,40.49-.89,10.64-.82,21.42-1.71,32.46-4.23,33.12-7.56,68.93-22.47,113.54-20.69,37.55,1.5,59.64-11.23,70.8-30l-.72-.16A12.56,12.56,0,0,1,369.78,158.49Zm-234.72,2.7h-9.18v-39h-.18l-9.09,27.54H112l-9-27.54h-.18v39H93.66V97.11h8.82L114.27,131h.18l11.7-33.93h8.91Zm31.59,0L164,147.42H151.44l-2.7,13.77h-9.18l14.31-64.08h7.65l14.31,64.08Zm38.25,0-10.44-28.44-5,9.27v19.17h-9.18V97.11h9.18v29.25h.18L203.1,97.11h9.18l-12.51,25.65,14.85,38.43Zm23.22,0h-9.18V97.11h9.18Zm48.6,0L274,147.42H261.51l-2.7,13.77h-9.18l14.31-64.08h7.65l14.31,64.08Zm43.38-17.55q0,9-4.37,13.27t-12.55,4.28H290.4V97.11H304q7.92,0,12,4.32t4.09,12.24Zm31.59,17.55L349,147.42H336.48l-2.7,13.77H324.6l14.31-64.08h7.65l14.31,64.08Z"/><polygon class="cls-1" points="342.6 115.56 338.1 138.78 347.28 138.78 342.78 115.56 342.6 115.56"/><path class="cls-1" d="M375.13,107.86a11.36,11.36,0,0,0-1.12,5.36V146a8.48,8.48,0,0,0,1.21,4.68q1.21,1.88,4.35,1.88c5.13-13,6.09-28,4-42.87-.12-.87-.25-1.73-.38-2.59a4.94,4.94,0,0,0-3.54-1.33Q376.26,105.75,375.13,107.86Z"/></g></g></svg>